<?xml version="1.0" encoding="UTF-8" standalone="no"?>
<svg
   width="1000"
   height="1000"
   viewBox="0 0 1000 1000"
   fill="none"
   version="1.1"
   id="svg14"
   xmlns="http://www.w3.org/2000/svg"
   xmlns:svg="http://www.w3.org/2000/svg">
  <g
     id="g5">
    <path
       d="M 0,540 370,22 C 385,0 405,0 415,0 c 10,0 30,2.5 45,10 50,25 33.5,96.5 32,102 L 420,370 220,650 Z"
       fill="url(#paint0)"
       id="path1"
       style="fill:url(#paint0);stroke-width:0.5" />
    <path
       d="m 460,10 c 50,25 33.5,96.5 32,102 L 420,370 580,146 c 40,-56 70,-37 80,-36 z"
       fill="url(#paint1)"
       id="path2"
       style="fill:url(#paint1);stroke-width:0.5" />
    <path
       d="M 420,370 580,146 c 40,-56 70,-37 80,-36 45,20 50,50 40,90 L 580,630 420,854 c -40,56 -70,37 -80,36 -45,-20 -50,-50 -40,-90 z"
       fill="url(#paint2)"
       id="path3"
       style="fill:url(#paint2);stroke-width:0.5" />
    <path
       d="M 540,990 C 490,965 506.5,893.5 508,888 L 580,630 420,854 c -40,56 -70,37 -80,36 z"
       fill="url(#paint3)"
       id="path4"
       style="fill:url(#paint3);stroke-width:0.5" />
    <path
       d="M 1000,460 630,978 c -15,22 -35,22 -45,22 -10,0 -30,-2.5 -45,-10 -50,-25 -33.5,-96.5 -32,-102 L 580,630 780,350 Z"
       fill="url(#paint4)"
       id="path5"
       style="fill:url(#paint4);stroke-width:0.5" />
  </g>
  <defs
     id="defs14">
    <linearGradient
       id="paint0"
       x1="440"
       y1="1300"
       x2="740"
       y2="44"
       gradientUnits="userSpaceOnUse"
       gradientTransform="scale(0.5)">
      <stop
         stop-color="#A4C4E4"
         id="stop5" />
      <stop
         offset="1"
         stop-color="#66A6D6"
         id="stop6" />
    </linearGradient>
    <linearGradient
       id="paint1"
       x1="984"
       y1="224"
       x2="1160"
       y2="292"
       gradientUnits="userSpaceOnUse"
       gradientTransform="scale(0.5)">
      <stop
         stop-color="#3D7DBD"
         id="stop7" />
      <stop
         offset="1"
         stop-color="#4488D0"
         id="stop8" />
    </linearGradient>
    <linearGradient
       id="paint2"
       x1="1080"
       y1="400"
       x2="935"
       y2="1565"
       gradientUnits="userSpaceOnUse"
       gradientTransform="scale(0.5)">
      <stop
         stop-color="#ABCCEF"
         id="stop9" />
      <stop
         offset="1"
         stop-color="#689CC4"
         id="stop10" />
    </linearGradient>
    <linearGradient
       id="paint3"
       x1="840"
       y1="1708"
       x2="1016"
       y2="1776"
       gradientUnits="userSpaceOnUse"
       gradientTransform="scale(0.5)">
      <stop
         stop-color="#4575A5"
         id="stop11" />
      <stop
         offset="1"
         stop-color="#2F4F8F"
         id="stop12" />
    </linearGradient>
    <linearGradient
       id="paint4"
       x1="970"
       y1="1930"
       x2="1775"
       y2="815"
       gradientUnits="userSpaceOnUse"
       gradientTransform="scale(0.5)">
      <stop
         stop-color="#213E7C"
         id="stop13" />
      <stop
         offset="1"
         stop-color="#0C4480"
         id="stop14" />
    </linearGradient>
  </defs>
</svg>
